<?xml version="1.0" encoding="UTF-8"?>
<svg id="_Ñëîé_1" data-name="Ñëîé 1" xmlns="http://www.w3.org/2000/svg" viewBox="0 0 50 50">
  <defs>
    <style>
      .cls-1 {
        fill: #666;
      }
    </style>
  </defs>
  <path class="cls-1" d="M25,.5C11.469,.5,.5,11.469,.5,25c0,12.253,8.995,22.405,20.742,24.213,1.033,.159,2.088,.254,3.159,.28,.199,.005,.399,.007,.599,.007s.4-.003,.599-.007c1.027-.025,2.039-.113,3.031-.26,11.809-1.754,20.869-11.936,20.869-24.233C49.5,11.469,38.531,.5,25,.5Zm12.921,38.556c-1.908,.952-3.886,1.43-5.945,1.431-4.453,0-9.29-2.235-14.633-6.738-7.813-6.582-10.665-12.922-8.72-19.379,.877-2.918,2.396-4.634,4.275-4.831,1.884-.192,3.763,1.164,5.173,3.735,1.396,2.545,1.782,4.549,1.148,5.958-.432,.959-1.333,1.621-2.608,1.912-.526,.12-.644,.367-.687,.542-.239,.991,1.058,3.476,5.501,7.222s7.114,4.594,8.049,4.195c.166-.072,.388-.23,.418-.769,.07-1.306,.568-2.307,1.442-2.895,1.281-.863,3.321-.822,6.064,.123,2.774,.954,4.434,2.58,4.559,4.463,.124,1.885-1.31,3.673-4.035,5.033Z"/>
</svg>