<?xml version="1.0" encoding="UTF-8"?>
<svg id="_Ñëîé_1" data-name="Ñëîé 1" xmlns="http://www.w3.org/2000/svg" viewBox="0 0 50 50">
  <defs>
    <style>
      .cls-1 {
        fill: #00be00;
      }
    </style>
  </defs>
  <path class="cls-1" d="M21.922,20.548v7.306c0,.181-.147,.328-.328,.328h-1.203c-.181,0-.328-.147-.328-.328v-7.306c0-.181,.147-.328,.328-.328h1.203c.181,0,.328,.147,.328,.328Zm-3.19,5.819h-3.198v-5.819c0-.181-.147-.328-.328-.328h-1.203c-.181,0-.328,.147-.328,.328v7.306c0,.181,.147,.328,.328,.328h4.729c.179,0,.324-.145,.324-.324v-1.167c0-.179-.145-.324-.324-.324Zm11.021-6.147h-1.203c-.181,0-.328,.147-.328,.328v4.301l-3.347-4.478c-.016-.022-.035-.041-.055-.058-.059-.058-.14-.094-.23-.094h-1.203c-.181,0-.328,.147-.328,.328v7.306c0,.181,.147,.328,.328,.328h1.203c.181,0,.328-.147,.328-.328v-4.318l3.339,4.468c.054,.106,.165,.179,.292,.179h1.203c.181,0,.328-.147,.328-.328v-7.306c0-.181-.147-.328-.328-.328Zm6.479,0h-4.671c-.177,0-.32,.143-.32,.32v7.322c0,.177,.144,.32,.32,.32h4.671c.179,0,.324-.145,.324-.324v-1.167c0-.179-.145-.324-.324-.324h-3.22v-1.269h3.22c.179,0,.324-.145,.324-.324v-1.167c0-.179-.145-.324-.324-.324h-3.22v-1.247h3.22c.179,0,.324-.145,.324-.324v-1.167c0-.179-.145-.324-.324-.324Zm13.268,4.78c0,13.531-10.969,24.5-24.5,24.5S.5,38.531,.5,25,11.469,.5,25,.5s24.5,10.969,24.5,24.5Zm-7.606-1.17c0-7.575-7.551-13.716-16.865-13.716s-16.866,6.141-16.866,13.716c0,6.709,5.923,12.292,13.748,13.482,.376,.057,.745,.154,1.105,.278,.215,.074,.413,.191,.566,.362,.228,.255,.222,.738,.222,1.06,0,.936-.328,2.188-.328,2.734,0,.705,.921,.684,1.553,.372,1.728-.853,3.6-2.035,5.316-3.238,1.864-1.307,3.65-2.553,5.005-3.765,1.438-1.286,2.48-2.336,2.891-2.76,.032-.032,.063-.065,.094-.097,.038-.04,.065-.069,.082-.086,.004-.004,.008-.008,.012-.012,.004-.005,.007-.007,.007-.007,.096-.102,.19-.205,.283-.309,.287-.323,.557-.657,.808-1.001,1.504-2.052,2.368-4.45,2.368-7.012Z"/>
</svg>