<?xml version="1.0" encoding="UTF-8"?>
<svg id="_Ñëîé_1" data-name="Ñëîé 1" xmlns="http://www.w3.org/2000/svg" viewBox="0 0 50 50">
  <defs>
    <style>
      .cls-1 {
        fill: #3250dc;
      }
    </style>
  </defs>
  <path class="cls-1" d="M25,.5C11.469,.5,.5,11.469,.5,25c0,12.253,8.995,22.405,20.742,24.213v-.698h-.008s.014-16.517,.014-16.517h-6.109v-6.88h6.123v-4.846c0-1.141,.052-2.217,.352-3.319,.388-1.426,1.057-2.799,2.07-3.887,1.444-1.552,3.313-2.15,5.365-2.378,.89-.099,1.711-.162,2.604-.094,1.276,.098,2.546,.299,3.805,.524v5.773c-.266-.028-3.674,.036-4.035,.126-3.65,.905-2.756,5.288-2.733,8.1h6.516l-.925,6.894h-5.633v16.581c-.005,0-.01,.002-.016,.002v.637c11.809-1.754,20.87-11.936,20.87-24.233C49.5,11.469,38.531,.5,25,.5Z"/>
</svg>